# Created by Kenney (www.kenney.nl)

mtllib foamBulletB.mtl

g foamBulletB

v 0.01000001 -0.03 0
v 0.009659261 -0.03 -0.002588198
v 0.009659261 -0.03 0.002588198
v 0.008660257 -0.03 0.004999995
v 0.008660257 -0.03 -0.004999995
v 0.007071063 -0.03 0.007071063
v 0.007071063 -0.03 -0.007071063
v 0.004999995 -0.03 0.008660257
v 0.004999995 -0.03 -0.008660257
v 0.002588198 -0.03 0.009659261
v 0.002588198 -0.03 -0.009659261
v 0 -0.03 0.01000001
v 0 -0.03 -0.01000001
v -0.002588198 -0.03 0.009659261
v -0.002588198 -0.03 -0.009659261
v -0.004999995 -0.03 -0.008660257
v -0.004999995 -0.03 0.008660257
v -0.007071063 -0.03 0.007071063
v -0.007071063 -0.03 -0.007071063
v -0.008660257 -0.03 0.004999995
v -0.008660257 -0.03 -0.004999995
v -0.009659261 -0.03 0.002588198
v -0.009659261 -0.03 -0.002588198
v -0.01000001 -0.03 0
v 0.007071063 0.02 -0.007071063
v 0.008660257 0.02 -0.004999995
v -0.008660257 0.02 -0.004999995
v -0.009659261 0.02 -0.002588198
v -0.007071063 0.02 -0.007071063
v -0.004999995 0.02 -0.008660257
v 0.007071063 0.02 0.007071063
v 0.004999995 0.02 0.008660257
v -0.002588198 0.02 -0.009659261
v 0 0.02 -0.01000001
v -0.008660257 0.02 0.004999995
v -0.007071063 0.02 0.007071063
v 0.002588198 0.02 -0.009659261
v 0 0.02 0.01000001
v -0.002588198 0.02 0.009659261
v -0.004999995 0.02 0.008660257
v 0.008660257 0.02 0.004999995
v 0.01000001 0.02 0
v 0.009659261 0.02 0.002588198
v 0.004999995 0.02 -0.008660257
v 0.002588198 0.02 0.009659261
v 0.009659261 0.02 -0.002588198
v -0.01000001 0.02 0
v -0.009659261 0.02 0.002588198
v 0.007499993 0.03 0
v 0.007244438 0.03 0.001941144
v 0.007244438 0.03 -0.001941144
v 0.006495193 0.03 -0.003749996
v 0.006495193 0.03 0.003749996
v 0.005303293 0.03 -0.005303293
v 0.005303293 0.03 0.005303293
v 0.003749996 0.03 -0.006495193
v 0.003749996 0.03 0.006495193
v 0.001941144 0.03 -0.007244438
v 0.001941144 0.03 0.007244438
v 0 0.03 -0.007499993
v 0 0.03 0.007499993
v -0.001941144 0.03 -0.007244438
v -0.001941144 0.03 0.007244438
v -0.003749996 0.03 -0.006495193
v -0.003749996 0.03 0.006495193
v -0.005303293 0.03 -0.005303293
v -0.005303293 0.03 0.005303293
v -0.006495193 0.03 -0.003749996
v -0.006495193 0.03 0.003749996
v -0.007244438 0.03 -0.001941144
v -0.007244438 0.03 0.001941144
v -0.007499993 0.03 0

vn 0 -1 0
vn 0.7071068 0 -0.7071068
vn 0.8660254 0 -0.5
vn -0.8660254 0 -0.5
vn -0.9659258 0 -0.258819
vn -0.7071068 0 -0.7071068
vn -0.5 0 -0.8660254
vn 0.7071068 0 0.7071068
vn 0.5 0 0.8660254
vn -0.258819 0 -0.9659258
vn 0 0 -1
vn -0.8660254 0 0.5
vn -0.7071068 0 0.7071068
vn 0.258819 0 -0.9659258
vn 0 0 1
vn -0.258819 0 0.9659258
vn -0.5 0 0.8660254
vn 0.8660254 0 0.5
vn 1 0 0
vn 0.9659258 0 0.258819
vn 0.5 0 -0.8660254
vn 0.258819 0 0.9659258
vn 0.9659258 0 -0.258819
vn -1 0 0
vn -0.9659258 0 0.258819
vn 0 1 0
vn 0.9370857 0.2425356 0.2510914
vn 0.8401681 0.2425356 0.4850713
vn 0.8401681 0.2425356 -0.4850713
vn 0.9370857 0.2425356 -0.2510914
vn 0.6859944 0.2425356 -0.6859944
vn 0.6859944 0.2425356 0.6859944
vn 0.2510914 0.2425356 0.9370857
vn 0 0.2425356 0.9701425
vn 0.9701425 0.2425356 0
vn 0.4850713 0.2425356 0.8401681
vn -0.8401681 0.2425356 -0.4850713
vn -0.9370857 0.2425356 -0.2510914
vn -0.4850713 0.2425356 -0.8401681
vn -0.2510914 0.2425356 -0.9370857
vn -0.6859944 0.2425356 -0.6859944
vn -0.9701425 0.2425356 0
vn -0.2510914 0.2425356 0.9370857
vn -0.4850713 0.2425356 0.8401681
vn 0.2510914 0.2425356 -0.9370857
vn 0.4850713 0.2425356 -0.8401681
vn -0.9370857 0.2425356 0.2510914
vn -0.8401681 0.2425356 0.4850713
vn -0.6859944 0.2425356 0.6859944
vn 0 0.2425356 -0.9701425

vt 0.3937008 0
vt 0.3802858 -0.1018973
vt 0.3802858 0.1018973
vt 0.3409549 0.1968504
vt 0.3409549 -0.1968504
vt 0.2783885 0.2783885
vt 0.2783885 -0.2783885
vt 0.1968504 0.3409549
vt 0.1968504 -0.3409549
vt 0.1018973 0.3802858
vt 0.1018973 -0.3802858
vt 0 0.3937008
vt 0 -0.3937008
vt -0.1018973 0.3802858
vt -0.1018973 -0.3802858
vt -0.1968504 -0.3409549
vt -0.1968504 0.3409549
vt -0.2783885 0.2783885
vt -0.2783885 -0.2783885
vt -0.3409549 0.1968504
vt -0.3409549 -0.1968504
vt -0.3802858 0.1018973
vt -0.3802858 -0.1018973
vt -0.3937008 0
vt 0.05138826 0.7874016
vt 0.05138826 -1.181102
vt -0.05138826 0.7874016
vt -0.05138826 -1.181102
vt -0.2952756 0
vt -0.2852143 0.07642294
vt -0.2852143 -0.07642294
vt -0.2557162 -0.1476378
vt -0.2557162 0.1476378
vt -0.2087914 -0.2087914
vt -0.2087914 0.2087914
vt -0.1476378 -0.2557162
vt -0.1476378 0.2557162
vt -0.07642294 -0.2852143
vt -0.07642294 0.2852143
vt 0 -0.2952756
vt 0 0.2952756
vt 0.07642294 -0.2852143
vt 0.07642294 0.2852143
vt 0.1476378 -0.2557162
vt 0.1476378 0.2557162
vt 0.2087914 -0.2087914
vt 0.2087914 0.2087914
vt 0.2557162 -0.1476378
vt 0.2557162 0.1476378
vt 0.2852143 -0.07642294
vt 0.2852143 0.07642294
vt 0.2952756 0
vt 0.0385412 1.075982
vt 0.05138826 0.6703681
vt -0.0385412 1.075982
vt -0.05138826 0.6703681

usemtl yellow

f 3/3/1 2/2/1 1/1/1
f 2/2/1 3/3/1 4/4/1
f 2/2/1 4/4/1 5/5/1
f 5/5/1 4/4/1 6/6/1
f 5/5/1 6/6/1 7/7/1
f 7/7/1 6/6/1 8/8/1
f 7/7/1 8/8/1 9/9/1
f 9/9/1 8/8/1 10/10/1
f 9/9/1 10/10/1 11/11/1
f 11/11/1 10/10/1 12/12/1
f 11/11/1 12/12/1 13/13/1
f 13/13/1 12/12/1 14/14/1
f 13/13/1 14/14/1 15/15/1
f 15/15/1 14/14/1 16/16/1
f 16/16/1 14/14/1 17/17/1
f 16/16/1 17/17/1 18/18/1
f 16/16/1 18/18/1 19/19/1
f 19/19/1 18/18/1 20/20/1
f 19/19/1 20/20/1 21/21/1
f 21/21/1 20/20/1 22/22/1
f 21/21/1 22/22/1 23/23/1
f 23/23/1 22/22/1 24/24/1
f 26/27/3 7/26/2 25/25/2
f 7/26/2 26/27/3 5/28/3
f 23/26/5 27/27/4 21/28/4
f 27/27/4 23/26/5 28/25/5
f 29/25/6 16/28/7 19/26/6
f 16/28/7 29/25/6 30/27/7
f 31/25/8 8/28/9 6/26/8
f 8/28/9 31/25/8 32/27/9
f 33/25/10 13/28/11 15/26/10
f 13/28/11 33/25/10 34/27/11
f 18/26/13 35/27/12 20/28/12
f 35/27/12 18/26/13 36/25/13
f 34/25/11 11/28/14 13/26/11
f 11/28/14 34/25/11 37/27/14
f 38/25/15 14/28/16 12/26/15
f 14/28/16 38/25/15 39/27/16
f 39/25/16 17/28/17 14/26/16
f 17/28/17 39/25/16 40/27/17
f 31/27/8 4/26/18 41/25/18
f 4/26/18 31/27/8 6/28/8
f 43/27/20 1/26/19 42/25/19
f 1/26/19 43/27/20 3/28/20
f 37/25/14 9/28/21 11/26/14
f 9/28/21 37/25/14 44/27/21
f 32/25/9 10/28/22 8/26/9
f 10/28/22 32/25/9 45/27/22
f 42/27/19 2/26/23 46/25/23
f 2/26/23 42/27/19 1/28/19
f 40/25/17 18/28/13 17/26/17
f 18/28/13 40/25/17 36/27/13
f 21/26/4 29/27/6 19/28/6
f 29/27/6 21/26/4 27/25/4
f 24/26/24 28/27/5 23/28/5
f 28/27/5 24/26/24 47/25/24
f 20/26/12 48/27/25 22/28/25
f 48/27/25 20/26/12 35/25/12
f 30/25/7 15/28/10 16/26/7
f 15/28/10 30/25/7 33/27/10
f 22/26/25 47/27/24 24/28/24
f 47/27/24 22/26/25 48/25/25
f 46/27/23 5/26/3 26/25/3
f 5/26/3 46/27/23 2/28/23
f 44/25/21 7/28/2 9/26/21
f 7/28/2 44/25/21 25/27/2
f 41/27/18 3/26/20 43/25/20
f 3/26/20 41/27/18 4/28/18
f 45/25/22 12/28/15 10/26/22
f 12/28/15 45/25/22 38/27/15

usemtl pink

f 51/31/26 50/30/26 49/29/26
f 50/30/26 51/31/26 52/32/26
f 50/30/26 52/32/26 53/33/26
f 53/33/26 52/32/26 54/34/26
f 53/33/26 54/34/26 55/35/26
f 55/35/26 54/34/26 56/36/26
f 55/35/26 56/36/26 57/37/26
f 57/37/26 56/36/26 58/38/26
f 57/37/26 58/38/26 59/39/26
f 59/39/26 58/38/26 60/40/26
f 59/39/26 60/40/26 61/41/26
f 61/41/26 60/40/26 62/42/26
f 61/41/26 62/42/26 63/43/26
f 63/43/26 62/42/26 64/44/26
f 63/43/26 64/44/26 65/45/26
f 65/45/26 64/44/26 66/46/26
f 65/45/26 66/46/26 67/47/26
f 67/47/26 66/46/26 68/48/26
f 67/47/26 68/48/26 69/49/26
f 69/49/26 68/48/26 70/50/26
f 69/49/26 70/50/26 71/51/26
f 71/51/26 70/50/26 72/52/26
f 53/55/28 43/54/27 50/53/27
f 43/54/27 53/55/28 41/56/28
f 52/53/29 46/56/30 26/54/29
f 46/56/30 52/53/29 51/55/30
f 54/53/31 26/56/29 25/54/31
f 26/56/29 54/53/31 52/55/29
f 55/55/32 41/54/28 53/53/28
f 41/54/28 55/55/32 31/56/32
f 59/53/33 38/56/34 45/54/33
f 38/56/34 59/53/33 61/55/34
f 50/55/27 42/54/35 49/53/35
f 42/54/35 50/55/27 43/56/27
f 51/53/30 42/56/35 46/54/30
f 42/56/35 51/53/30 49/55/35
f 57/53/36 45/56/33 32/54/36
f 45/56/33 57/53/36 59/55/33
f 55/53/32 32/56/36 31/54/32
f 32/56/36 55/53/32 57/55/36
f 28/54/38 68/55/37 27/56/37
f 68/55/37 28/54/38 70/53/38
f 64/53/39 33/56/40 30/54/39
f 33/56/40 64/53/39 62/55/40
f 27/54/37 66/55/41 29/56/41
f 66/55/41 27/54/37 68/53/37
f 47/54/42 70/55/38 28/56/38
f 70/55/38 47/54/42 72/53/42
f 66/53/41 30/56/39 29/54/41
f 30/56/39 66/53/41 64/55/39
f 63/53/43 40/56/44 39/54/43
f 40/56/44 63/53/43 65/55/44
f 61/53/34 39/56/43 38/54/34
f 39/56/43 61/53/34 63/55/43
f 58/53/45 44/56/46 37/54/45
f 44/56/46 58/53/45 56/55/46
f 48/54/47 72/55/42 47/56/42
f 72/55/42 48/54/47 71/53/47
f 35/56/48 67/53/49 69/55/48
f 67/53/49 35/56/48 36/54/49
f 65/53/44 36/56/49 40/54/44
f 36/56/49 65/53/44 67/55/49
f 48/56/47 69/53/48 71/55/47
f 69/53/48 48/56/47 35/54/48
f 56/53/46 25/56/31 44/54/46
f 25/56/31 56/53/46 54/55/31
f 60/53/50 37/56/45 34/54/50
f 37/56/45 60/53/50 58/55/45
f 62/53/40 34/56/50 33/54/40
f 34/56/50 62/53/40 60/55/50

